<svg width="100" height="100" viewBox="0 0 100 100" xmlns="http://www.w3.org/2000/svg">
  <!-- Background circle -->
  <circle cx="50" cy="50" r="50" fill="#1a2332"/>
  
  <!-- House structure -->
  <g transform="translate(50, 50)">
    <!-- Main house body -->
    <rect x="-18" y="-5" width="36" height="25" fill="#4a5568" rx="2"/>
    
    <!-- Roof -->
    <path d="M-22 -5 L0 -22 L22 -5 Z" fill="#2d3748"/>
    
    <!-- Door -->
    <rect x="-4" y="8" width="8" height="12" fill="#1a202c" rx="1"/>
    <circle cx="2" cy="14" r="0.8" fill="#e2e8f0"/>
    
    <!-- Windows -->
    <rect x="-14" y="2" width="6" height="6" fill="#2b6cb0" rx="1"/>
    <rect x="8" y="2" width="6" height="6" fill="#2b6cb0" rx="1"/>
    
    <!-- Window frames -->
    <line x1="-11" y1="2" x2="-11" y2="8" stroke="#1a365d" stroke-width="0.5"/>
    <line x1="-14" y1="5" x2="-8" y2="5" stroke="#1a365d" stroke-width="0.5"/>
    <line x1="11" y1="2" x2="11" y2="8" stroke="#1a365d" stroke-width="0.5"/>
    <line x1="8" y1="5" x2="14" y2="5" stroke="#1a365d" stroke-width="0.5"/>
    
    <!-- Chimney -->
    <rect x="12" y="-18" width="4" height="8" fill="#4a5568"/>
    
    <!-- Foundation/base -->
    <rect x="-20" y="20" width="40" height="3" fill="#2d3748" rx="1"/>
  </g>
  
  <!-- Accent elements -->
  <circle cx="25" cy="25" r="3" fill="#48bb78" opacity="0.8"/>
  <circle cx="75" cy="75" r="2" fill="#ed8936" opacity="0.6"/>
</svg>